<svg width="50" height="50" viewBox="0 0 50 50" fill="none" xmlns="http://www.w3.org/2000/svg">
<g id="facebook_icon-icons.com_59205 1">
<g id="Group">
<g id="Group_2">
<path id="Vector" d="M25 48.2728C37.8532 48.2728 48.2728 37.8532 48.2728 25C48.2728 12.1468 37.8532 1.72729 25 1.72729C12.1468 1.72729 1.72729 12.1468 1.72729 25C1.72729 37.8532 12.1468 48.2728 25 48.2728Z" fill="#3F65A6"/>
<path id="Facebook_4_" d="M21.4636 17.3455C21.4636 18.0182 21.4636 21.0182 21.4636 21.0182H18.7727V25.5091H21.4636V37.8182H26.9909V25.5H30.7C30.7 25.5 31.0454 23.3455 31.2182 20.9909C30.7363 20.9909 27.0182 20.9909 27.0182 20.9909C27.0182 20.9909 27.0182 18.3818 27.0182 17.9182C27.0182 17.4636 27.6182 16.8455 28.2182 16.8455C28.8091 16.8455 30.0636 16.8455 31.2273 16.8455C31.2273 16.2364 31.2273 14.1182 31.2273 12.1727C29.6727 12.1727 27.9091 12.1727 27.1363 12.1727C21.3273 12.1818 21.4636 16.6727 21.4636 17.3455Z" fill="white"/>
</g>
</g>
</g>
</svg>
