<svg width="50" height="50" viewBox="0 0 50 50" fill="none" xmlns="http://www.w3.org/2000/svg">
<g id="google_icon-icons.com_62736 1">
<g id="Group">
<path id="Vector" d="M4.14062 14.2481C5.6543 11.0938 7.79297 8.42774 10.4883 6.21095C14.1406 3.19337 18.3301 1.37696 23.0273 0.820323C28.5449 0.166026 33.7305 1.21095 38.5254 4.08204C39.7168 4.79493 40.8301 5.60548 41.8945 6.48439C42.1582 6.69923 42.1289 6.82618 41.9043 7.04103C39.7266 9.20899 37.5488 11.377 35.3906 13.5645C35.1367 13.8184 35 13.7988 34.7266 13.5938C28.3984 8.72071 19.1699 10.0391 14.4531 16.4844C13.623 17.6172 12.9492 18.8379 12.4805 20.166C12.4414 20.2832 12.3633 20.3906 12.3047 20.5078C11.0449 19.5508 9.77539 18.5938 8.52539 17.627C7.06055 16.5039 5.5957 15.3809 4.14062 14.2481Z" fill="#E94335"/>
<path id="Vector_2" d="M12.3047 29.668C12.7246 30.5957 13.0762 31.5625 13.6035 32.4316C15.8203 36.0645 18.9844 38.3984 23.1543 39.2285C26.9141 39.9805 30.5273 39.4727 33.8965 37.5879C34.0137 37.5293 34.1309 37.4707 34.2383 37.4121C34.2969 37.4707 34.3457 37.5391 34.4043 37.5879C36.9238 39.541 39.4531 41.4941 41.9727 43.4473C40.7617 44.6484 39.3848 45.6152 37.9199 46.4551C33.6719 48.877 29.0723 49.8535 24.2285 49.4824C18.1934 49.0137 12.9883 46.6309 8.69141 42.334C6.80664 40.4492 5.25391 38.3203 4.13086 35.8887C5.17578 35.0879 6.2207 34.2969 7.26563 33.4961C8.94531 32.2168 10.625 30.9473 12.3047 29.668Z" fill="#34A853"/>
<path id="Vector_3" d="M41.9825 43.4473C39.4629 41.4941 36.9336 39.541 34.4141 37.5879C34.3555 37.5391 34.2969 37.4707 34.2481 37.4121C35.1172 36.7383 36.0059 36.084 36.7188 35.2246C37.9102 33.7988 38.7012 32.1875 39.1114 30.3809C39.1602 30.1563 39.1211 30.0781 38.8965 30.0879C38.7793 30.0977 38.6719 30.0879 38.5547 30.0879C34.5703 30.0879 30.5762 30.0781 26.5918 30.0977C26.1524 30.0977 26.0547 29.9805 26.0645 29.5605C26.084 26.7285 26.084 23.8965 26.0645 21.0645C26.0645 20.7031 26.1621 20.6055 26.5235 20.6055C33.8282 20.6152 41.1328 20.6152 48.4473 20.6055C48.7598 20.6055 48.8868 20.6836 48.9649 21.0156C49.5606 23.7012 49.5215 26.3965 49.1602 29.1113C48.8672 31.2793 48.3399 33.3789 47.5293 35.4102C46.3282 38.4082 44.5606 41.0254 42.2364 43.2715C42.1485 43.3398 42.0606 43.3887 41.9825 43.4473Z" fill="#4285F3"/>
<path id="Vector_4" d="M12.3047 29.668C10.625 30.9473 8.94533 32.2168 7.26564 33.4961C6.22072 34.2871 5.1758 35.0879 4.13087 35.8887C3.32033 34.3848 2.79298 32.793 2.3633 31.1523C1.54298 27.9785 1.41603 24.7559 1.86525 21.5234C2.21681 18.9844 2.94923 16.543 4.13087 14.2578C5.59572 15.3809 7.0508 16.5137 8.51564 17.6367C9.77541 18.6035 11.0352 19.5605 12.2949 20.5176C12.0801 21.5625 11.7774 22.5879 11.6797 23.6621C11.5039 25.6152 11.6895 27.5195 12.2461 29.3945C12.2852 29.4727 12.2949 29.5703 12.3047 29.668Z" fill="#FABB06"/>
</g>
</g>
</svg>
