<svg width="17" height="17" viewBox="0 0 17 17" fill="none" xmlns="http://www.w3.org/2000/svg">
<path id="Vector" d="M7.33332 14C8.81247 13.9997 10.249 13.5045 11.4142 12.5933L15.0775 16.2567L16.2558 15.0783L12.5925 11.415C13.5042 10.2497 13.9996 8.81287 14 7.33334C14 3.65751 11.0092 0.666672 7.33332 0.666672C3.65749 0.666672 0.666656 3.65751 0.666656 7.33334C0.666656 11.0092 3.65749 14 7.33332 14ZM7.33332 2.33334C10.0908 2.33334 12.3333 4.57584 12.3333 7.33334C12.3333 10.0908 10.0908 12.3333 7.33332 12.3333C4.57582 12.3333 2.33332 10.0908 2.33332 7.33334C2.33332 4.57584 4.57582 2.33334 7.33332 2.33334Z" fill="#414041"/>
</svg>
