<svg width="20" height="20" viewBox="0 0 20 20" fill="none" xmlns="http://www.w3.org/2000/svg">
<path d="M4.516 12.323L3.026 18.775C2.97986 18.9704 2.99372 19.1751 3.06575 19.3625C3.13778 19.5499 3.26464 19.7112 3.42977 19.8253C3.5949 19.9395 3.79062 20.0012 3.99136 20.0024C4.1921 20.0036 4.38853 19.9442 4.555 19.832L10 16.202L15.445 19.832C15.6153 19.9451 15.8162 20.0033 16.0206 19.9988C16.225 19.9944 16.4232 19.9274 16.5884 19.8069C16.7536 19.6865 16.878 19.5183 16.9448 19.3251C17.0116 19.1318 17.0176 18.9228 16.962 18.726L15.133 12.326L19.669 8.244C19.8143 8.11319 19.918 7.94266 19.9674 7.75351C20.0168 7.56436 20.0097 7.36488 19.9469 7.17974C19.8841 6.99461 19.7685 6.83193 19.6142 6.71183C19.46 6.59173 19.2739 6.51947 19.079 6.504L13.378 6.05L10.911 0.589002C10.8323 0.413158 10.7045 0.263838 10.5428 0.159062C10.3812 0.0542872 10.1926 -0.00146484 10 -0.00146484C9.80737 -0.00146484 9.61884 0.0542872 9.45719 0.159062C9.29554 0.263838 9.16767 0.413158 9.089 0.589002L6.622 6.05L0.921003 6.503C0.729459 6.51818 0.546341 6.58821 0.393558 6.70473C0.240775 6.82125 0.124796 6.97932 0.0594965 7.16003C-0.00580327 7.34074 -0.0176588 7.53644 0.0253483 7.72371C0.0683555 7.91098 0.164404 8.08189 0.302004 8.216L4.516 12.323ZM7.369 7.997C7.5475 7.98294 7.71892 7.92112 7.86531 7.81802C8.01169 7.71491 8.12764 7.57433 8.201 7.411L10 3.43L11.799 7.411C11.8724 7.57433 11.9883 7.71491 12.1347 7.81802C12.2811 7.92112 12.4525 7.98294 12.631 7.997L16.603 8.312L13.332 11.256C13.048 11.512 12.935 11.906 13.039 12.274L14.292 16.659L10.556 14.168C10.392 14.0579 10.199 13.9992 10.0015 13.9992C9.80401 13.9992 9.61099 14.0579 9.447 14.168L5.543 16.771L6.593 12.225C6.6315 12.0578 6.62634 11.8835 6.578 11.7189C6.52966 11.5543 6.43978 11.4048 6.317 11.285L3.279 8.323L7.369 7.997Z" fill="#B7A71B"/>
</svg>
